 <svg  version="1.0" xmlns="http://www.w3.org/2000/svg"  width="300.000000pt" height="255.000000pt" viewBox="0 0 300.000000 255.000000"  preserveAspectRatio="xMidYMid meet">  <g transform="translate(0.000000,255.000000) scale(0.100000,-0.100000)" fill="#ffffff" stroke="none"> <path d="M703 2524 c-31 -34 -29 -55 12 -165 20 -52 43 -114 52 -139 37 -107 52 -120 142 -120 41 0 64 -5 75 -16 14 -14 16 -87 16 -660 0 -464 -3 -644 -11 -644 -17 0 -153 135 -240 238 -133 160 -230 317 -260 422 -7 25 -19 53 -28 62 -15 17 -100 34 -201 42 -25 2 -78 8 -118 15 -105 15 -116 8 -108 -71 8 -67 54 -212 94 -298 96 -205 343 -514 568 -709 111 -96 134 -116 254 -210 36 -28 74 -58 85 -67 11 -8 83 -58 161 -110 l140 -94 96 0 96 0 84 52 c98 60 246 160 304 203 22 16 53 39 68 50 231 164 597 546 733 765 82 133 151 301 172 424 14 77 14 238 0 329 -14 96 -61 239 -102 309 -94 165 -254 296 -447 368 -47 18 -93 36 -102 41 -10 5 -111 9 -226 9 -196 0 -212 -1 -268 -24 -102 -41 -173 -87 -244 -160 -24 -25 -48 -46 -52 -46 -5 0 -27 17 -51 38 -45 40 -62 50 -147 93 -94 47 -190 84 -190 73 0 -2 -13 2 -30 11 -22 11 -63 15 -167 15 -136 0 -138 -1 -160 -26z m152 -5 c-78 -10 -150 -29 -137 -38 8 -6 121 -293 126 -321 2 -9 16 -16 37 -18 27 -2 110 -17 152 -28 4 -1 10 -2 13 -3 3 0 2 -6 -1 -11 -4 -7 -11 -8 -18 -2 -15 12 -109 32 -151 32 -19 0 -38 6 -43 13 -5 6 -27 62 -48 122 -22 61 -45 121 -52 135 -7 14 -13 33 -13 43 0 9 -5 17 -11 17 -6 0 -9 10 -7 23 4 30 55 46 148 45 l75 -1 -70 -8z m1215 1 c0 -5 21 -10 48 -10 34 0 43 3 32 10 -9 6 -10 10 -3 10 7 0 16 -6 20 -14 4 -7 42 -21 83 -31 118 -29 248 -103 340 -195 35 -34 111 -135 143 -190 15 -25 27 -41 27 -36 0 15 -50 97 -96 157 -52 68 -172 177 -231 209 -24 13 -41 25 -39 28 5 4 88 -43 121 -68 62 -48 161 -152 203 -214 63 -91 98 -168 127 -281 108 -422 -55 -799 -562 -1296 -168 -166 -301 -271 -548 -436 -149 -98 -227 -143 -251 -143 -18 0 -19 21 -19 657 0 573 2 660 15 670 18 14 167 16 175 2 4 -5 -27 -9 -74 -9 -44 0 -82 -3 -84 -7 -3 -5 65 -4 151 1 118 6 161 5 175 -4 17 -10 19 -10 14 4 -8 19 6 21 21 4 7 -9 10 -116 9 -303 l-1 -290 -6 275 -5 275 -5 -310 c-3 -171 -4 -312 -3 -314 18 -31 422 393 479 502 24 44 10 31 -30 -29 -21 -31 -40 -54 -42 -51 -3 3 18 40 45 82 28 43 51 82 51 87 0 6 7 8 15 4 8 -3 15 -4 15 -2 0 3 3 13 6 23 4 13 3 15 -4 4 -7 -9 -12 -10 -16 -2 -4 6 -2 11 3 11 6 0 11 8 11 18 0 13 2 14 9 3 12 -18 22 1 51 94 24 77 40 267 22 250 -6 -5 -13 -39 -15 -75 l-3 -65 -2 77 c-1 42 2 79 6 82 4 2 9 24 9 48 1 24 -1 35 -4 26 -8 -31 -20 -19 -26 27 -10 67 -62 161 -124 221 -30 30 -51 54 -46 54 5 0 22 -13 38 -30 15 -16 33 -27 38 -23 6 3 7 1 3 -5 -3 -6 -2 -13 3 -16 5 -4 12 -2 15 3 6 9 -32 48 -43 44 -3 -2 -6 3 -6 10 0 6 -5 12 -10 12 -13 0 -117 65 -127 80 -4 5 -8 7 -8 4 0 -4 -27 2 -61 12 -167 52 -323 -6 -515 -193 -56 -54 -96 -98 -89 -98 7 0 41 32 75 70 110 124 298 229 410 230 75 0 228 -53 265 -92 12 -13 10 -12 -75 29 -85 41 -170 56 -240 43 -118 -22 -241 -100 -354 -222 -109 -119 -109 -119 -108 157 l0 220 77 68 c80 69 184 128 270 152 59 16 255 20 255 5z m-1063 -29 c136 -25 253 -84 351 -175 36 -34 60 -52 54 -41 -12 24 -95 104 -135 130 -15 10 -25 20 -22 23 7 7 75 -42 129 -93 l46 -45 0 -1135 c0 -792 -3 -1135 -11 -1135 -5 0 -8 4 -4 10 3 5 -7 5 -25 -1 -29 -11 -38 -6 -176 86 -259 172 -543 410 -692 578 -180 205 -294 363 -356 499 -57 125 -66 146 -66 160 0 7 -6 24 -13 38 -15 28 -41 149 -34 156 2 2 39 -1 83 -6 43 -6 99 -13 124 -15 110 -10 183 -24 191 -36 5 -8 9 -23 9 -35 0 -84 124 -296 273 -469 64 -74 84 -94 176 -175 88 -77 112 -102 106 -108 -9 -9 -236 202 -298 276 -153 185 -275 380 -260 417 4 13 3 16 -6 11 -8 -6 -10 0 -6 21 4 22 3 24 -4 8 -13 -28 -4 -58 46 -155 47 -90 178 -270 259 -357 72 -77 274 -253 290 -253 12 0 14 113 16 721 3 700 2 721 -16 737 -15 13 -17 13 -11 2 7 -12 5 -12 -11 1 -20 17 -25 18 -94 22 -25 1 -50 7 -56 13 -10 9 -38 77 -81 199 -8 22 -21 55 -29 74 -20 43 -10 53 59 62 61 8 109 5 194 -10z m1069 -385 c66 -17 162 -74 209 -123 36 -37 106 -169 122 -228 4 -17 8 -88 8 -160 0 -120 -2 -135 -28 -199 -45 -111 -85 -178 -166 -281 -69 -87 -56 -73 -186 -204 -60 -61 -117 -111 -127 -111 -17 0 -18 17 -18 265 0 312 2 305 -98 305 -33 0 -120 3 -196 7 l-136 6 2 216 3 216 25 3 c15 3 66 43 130 106 173 167 308 221 456 182z m-1049 -1034 c-1 -185 -2 -33 -2 338 0 371 1 523 2 337 2 -185 2 -489 0 -675z m1153 -77 c-75 -88 -241 -250 -295 -288 -16 -11 40 49 126 134 85 85 173 175 194 202 21 26 40 45 43 43 2 -3 -28 -44 -68 -91z"/> <path d="M1836 2504 c-32 -8 -87 -28 -122 -45 -68 -32 -208 -138 -218 -165 -3 -8 24 11 60 44 107 97 258 163 399 175 35 3 34 4 -10 4 -27 1 -76 -5 -109 -13z"/> <path d="M2393 1923 c17 -32 37 -78 44 -103 l13 -45 -5 40 c-5 45 -45 134 -69 154 -8 7 -1 -14 17 -46z"/> <path d="M2852 1569 c-3 -48 -36 -178 -67 -260 -94 -246 -389 -603 -735 -891 -101 -83 -401 -288 -505 -345 -33 -18 -54 -33 -46 -33 37 0 379 225 555 366 199 159 484 462 602 640 111 166 211 428 201 524 l-4 35 -1 -36z"/> <path d="M136 1521 c-19 -7 41 -17 217 -37 47 -5 60 -11 67 -28 8 -19 9 -19 9 7 1 15 -2 27 -6 27 -22 2 -222 29 -243 33 -14 3 -34 2 -44 -2z"/> <path d="M81 1478 c-2 -35 82 -250 131 -335 52 -92 157 -238 239 -334 27 -31 46 -59 44 -63 -3 -3 -2 -4 1 -2 7 6 52 -45 50 -56 -1 -10 145 -158 154 -155 3 1 21 -15 39 -36 19 -21 36 -36 38 -33 3 3 16 -8 30 -25 14 -16 28 -27 33 -24 4 3 10 -1 13 -9 15 -38 498 -383 518 -370 15 9 0 24 -18 17 -11 -4 -14 -2 -9 5 7 12 -27 35 -38 25 -3 -3 -6 -2 -6 4 0 12 -109 86 -127 86 -7 0 -13 4 -13 7 0 4 -42 39 -93 78 -51 38 -146 113 -209 165 -64 52 -119 93 -122 90 -3 -4 -6 -2 -6 3 0 5 -49 59 -108 119 -241 246 -404 485 -487 715 -15 41 -31 84 -35 95 -5 11 -11 27 -13 35 -4 12 -6 12 -6 -2z m554 -868 c38 -38 67 -70 64 -70 -2 0 -36 32 -74 70 -38 39 -67 70 -64 70 2 0 36 -31 74 -70z"/> </g> </svg> 